<mxfile host="Electron" agent="Mozilla/5.0 (Windows NT 10.0; Win64; x64) AppleWebKit/537.36 (KHTML, like Gecko) draw.io/24.7.17 Chrome/128.0.6613.36 Electron/32.0.1 Safari/537.36" version="24.7.17">
  <diagram id="wFE0QG_FPsp0jaGvCLVb" name="Page-1">
    <mxGraphModel dx="1036" dy="654" grid="1" gridSize="10" guides="1" tooltips="1" connect="1" arrows="1" fold="1" page="1" pageScale="1" pageWidth="850" pageHeight="1100" math="0" shadow="0">
      <root>
        <mxCell id="0" />
        <mxCell id="1" parent="0" />
        <mxCell id="8ta6O7tKQ5iUr2X37Q6d-8" value="" style="edgeStyle=orthogonalEdgeStyle;rounded=0;orthogonalLoop=1;jettySize=auto;html=1;opacity=50;fontStyle=0;fontSize=13;" edge="1" parent="1" source="8ta6O7tKQ5iUr2X37Q6d-1" target="8ta6O7tKQ5iUr2X37Q6d-4">
          <mxGeometry relative="1" as="geometry" />
        </mxCell>
        <mxCell id="8ta6O7tKQ5iUr2X37Q6d-1" value="Bandpass filter (1-50 Hz)" style="whiteSpace=wrap;html=1;aspect=fixed;fillColor=#fad9d5;strokeColor=#ae4132;opacity=50;fontStyle=0;fontSize=13;" vertex="1" parent="1">
          <mxGeometry x="230" y="402.5" width="80" height="80" as="geometry" />
        </mxCell>
        <mxCell id="8ta6O7tKQ5iUr2X37Q6d-2" value="16 EEG Electrodes&amp;nbsp;&lt;div style=&quot;font-size: 13px;&quot;&gt;(last 7 secs)&lt;/div&gt;" style="ellipse;whiteSpace=wrap;html=1;aspect=fixed;fillColor=#b0e3e6;strokeColor=#0e8088;fontStyle=0;fontSize=13;" vertex="1" parent="1">
          <mxGeometry x="60" y="397.5" width="90" height="90" as="geometry" />
        </mxCell>
        <mxCell id="8ta6O7tKQ5iUr2X37Q6d-3" value="" style="endArrow=classic;html=1;rounded=0;exitX=1;exitY=0.5;exitDx=0;exitDy=0;entryX=0;entryY=0.5;entryDx=0;entryDy=0;opacity=50;fontStyle=0;fontSize=13;" edge="1" parent="1" source="8ta6O7tKQ5iUr2X37Q6d-2" target="8ta6O7tKQ5iUr2X37Q6d-1">
          <mxGeometry width="50" height="50" relative="1" as="geometry">
            <mxPoint x="370" y="552.5" as="sourcePoint" />
            <mxPoint x="420" y="502.5" as="targetPoint" />
          </mxGeometry>
        </mxCell>
        <mxCell id="8ta6O7tKQ5iUr2X37Q6d-4" value="Notch Filter (60 Hz)" style="whiteSpace=wrap;html=1;aspect=fixed;fillColor=#fad9d5;strokeColor=#ae4132;opacity=50;fontStyle=0;fontSize=13;" vertex="1" parent="1">
          <mxGeometry x="385" y="402.5" width="80" height="80" as="geometry" />
        </mxCell>
        <mxCell id="8ta6O7tKQ5iUr2X37Q6d-5" value="" style="endArrow=classic;html=1;rounded=0;entryX=0;entryY=0.5;entryDx=0;entryDy=0;fontStyle=0;fontSize=13;" edge="1" parent="1" target="8ta6O7tKQ5iUr2X37Q6d-4">
          <mxGeometry width="50" height="50" relative="1" as="geometry">
            <mxPoint x="310" y="442.5" as="sourcePoint" />
            <mxPoint x="575" y="502.5" as="targetPoint" />
          </mxGeometry>
        </mxCell>
        <mxCell id="8ta6O7tKQ5iUr2X37Q6d-6" value="Z-score Normalization" style="whiteSpace=wrap;html=1;aspect=fixed;fillColor=#fad9d5;strokeColor=#ae4132;opacity=50;fontStyle=0;fontSize=13;" vertex="1" parent="1">
          <mxGeometry x="545" y="402.5" width="80" height="80" as="geometry" />
        </mxCell>
        <mxCell id="8ta6O7tKQ5iUr2X37Q6d-7" value="" style="endArrow=classic;html=1;rounded=0;exitX=1;exitY=0.5;exitDx=0;exitDy=0;entryX=0;entryY=0.5;entryDx=0;entryDy=0;fontStyle=0;fontSize=13;" edge="1" parent="1" target="8ta6O7tKQ5iUr2X37Q6d-6">
          <mxGeometry width="50" height="50" relative="1" as="geometry">
            <mxPoint x="465" y="442.5" as="sourcePoint" />
            <mxPoint x="735" y="502.5" as="targetPoint" />
          </mxGeometry>
        </mxCell>
        <mxCell id="8ta6O7tKQ5iUr2X37Q6d-26" value="" style="edgeStyle=orthogonalEdgeStyle;rounded=0;orthogonalLoop=1;jettySize=auto;html=1;fontStyle=0;fontSize=13;" edge="1" parent="1" source="8ta6O7tKQ5iUr2X37Q6d-9" target="8ta6O7tKQ5iUr2X37Q6d-25">
          <mxGeometry relative="1" as="geometry" />
        </mxCell>
        <mxCell id="8ta6O7tKQ5iUr2X37Q6d-9" value="Local store (NPY with metadata)" style="strokeWidth=2;html=1;shape=mxgraph.flowchart.database;whiteSpace=wrap;fillColor=#bac8d3;strokeColor=#23445d;fontStyle=0;fontSize=13;" vertex="1" parent="1">
          <mxGeometry x="700" y="385" width="100" height="115" as="geometry" />
        </mxCell>
        <mxCell id="8ta6O7tKQ5iUr2X37Q6d-12" value="" style="endArrow=classic;html=1;rounded=0;exitX=1;exitY=0.5;exitDx=0;exitDy=0;entryX=0;entryY=0.5;entryDx=0;entryDy=0;entryPerimeter=0;fontStyle=0;fontSize=13;" edge="1" parent="1" source="8ta6O7tKQ5iUr2X37Q6d-6" target="8ta6O7tKQ5iUr2X37Q6d-9">
          <mxGeometry width="50" height="50" relative="1" as="geometry">
            <mxPoint x="670" y="572.5" as="sourcePoint" />
            <mxPoint x="720" y="522.5" as="targetPoint" />
          </mxGeometry>
        </mxCell>
        <mxCell id="8ta6O7tKQ5iUr2X37Q6d-25" value="Upload to cloud (Box)" style="strokeWidth=2;html=1;shape=mxgraph.flowchart.database;whiteSpace=wrap;fillColor=#b1ddf0;strokeColor=#10739e;fontStyle=0;fontSize=13;" vertex="1" parent="1">
          <mxGeometry x="700" y="190" width="100" height="115" as="geometry" />
        </mxCell>
        <mxCell id="8ta6O7tKQ5iUr2X37Q6d-28" value="&lt;h1 style=&quot;margin-top: 0px;&quot;&gt;Data Flow: EEG signals to Cloud&lt;/h1&gt;" style="text;html=1;whiteSpace=wrap;overflow=hidden;rounded=0;" vertex="1" parent="1">
          <mxGeometry x="235" y="150" width="380" height="120" as="geometry" />
        </mxCell>
      </root>
    </mxGraphModel>
  </diagram>
</mxfile>
